<svg xmlns="http://www.w3.org/2000/svg">
  <symbol id="formula-icon" viewBox="0 0 24 24" fill="none" stroke="currentColor" stroke-width="2">
    <path d="M4 7c0-1.5 1-2 2-2h12c1 0 2 .5 2 2v10c0 1.5-1 2-2 2H6c-1 0-2-.5-2-2V7z"/>
    <path d="M8 10h8M8 14h5"/>
  </symbol>
  <symbol id="function-icon" viewBox="0 0 24 24" fill="none" stroke="currentColor" stroke-width="2">
    <path d="M16 3h3v4M4 3h8v4M4 21l12-18M12 21h8v-4"/>
  </symbol>
  <symbol id="variable-icon" viewBox="0 0 24 24" fill="none" stroke="currentColor" stroke-width="2">
    <path d="M4 7c0-1.5 1-2 2-2h12c1 0 2 .5 2 2v10c0 1.5-1 2-2 2H6c-1 0-2-.5-2-2V7z"/>
    <path d="M9 12h6M12 9v6"/>
  </symbol>
  <symbol id="operator-icon" viewBox="0 0 24 24" fill="none" stroke="currentColor" stroke-width="2">
    <circle cx="12" cy="12" r="9"/>
    <path d="M8 12h8M12 8v8"/>
  </symbol>
  <symbol id="bracket-icon" viewBox="0 0 24 24" fill="none" stroke="currentColor" stroke-width="2">
    <path d="M9 4H4v16h5M15 4h5v16h-5"/>
  </symbol>
</svg>
